# xmcd CD database file
#
# Track frame offsets:
#	150
#	15364
#	36098
#	50525
#	71297
#	88561
#	104994
#	127317
#	142941
#	167311
#	171627
#
# Disc length: 2508 seconds
#
# Revision: 0
# Processed by: cddbd v1.5.1PL0 Copyright (c) Steve Scherf et al.
# Submitted via: CDex 1.51
#
DISCID=9409ca0b
DTITLE=Trond Granlund - En litt forvirra fyr
DYEAR=2005
DGENRE=Country
TTITLE0=La klokker slå
TTITLE1=Håp for Groruddalen
TTITLE2=Høyt, lavt og langt
TTITLE3=Bøgda
TTITLE4=Bandidos i det fri
TTITLE5=Brun formiddag
TTITLE6=Far har fortalt
TTITLE7=Så langt her ifra
TTITLE8=Det klare vannet
TTITLE9=Blues for Kal
TTITLE10=Dauen
EXTD=YEAR: 2005
EXTT0=
EXTT1=
EXTT2=
EXTT3=
EXTT4=
EXTT5=
EXTT6=
EXTT7=
EXTT8=
EXTT9=
EXTT10=
PLAYORDER=
